<svg id="visual" viewBox="0 0 900 600" width="900" height="600" xmlns="http://www.w3.org/2000/svg" xmlns:xlink="http://www.w3.org/1999/xlink" version="1.1"><rect x="0" y="0" width="900" height="600" fill="#dbbbf8"></rect><defs><linearGradient id="grad1_0" x1="33.3%" y1="100%" x2="100%" y2="0%"><stop offset="20%" stop-color="#7b05c4" stop-opacity="1"></stop><stop offset="80%" stop-color="#7b05c4" stop-opacity="1"></stop></linearGradient></defs><defs><linearGradient id="grad1_1" x1="33.3%" y1="100%" x2="100%" y2="0%"><stop offset="20%" stop-color="#7b05c4" stop-opacity="1"></stop><stop offset="80%" stop-color="#9445d2" stop-opacity="1"></stop></linearGradient></defs><defs><linearGradient id="grad1_2" x1="33.3%" y1="100%" x2="100%" y2="0%"><stop offset="20%" stop-color="#ac6ee0" stop-opacity="1"></stop><stop offset="80%" stop-color="#9445d2" stop-opacity="1"></stop></linearGradient></defs><defs><linearGradient id="grad1_3" x1="33.3%" y1="100%" x2="100%" y2="0%"><stop offset="20%" stop-color="#ac6ee0" stop-opacity="1"></stop><stop offset="80%" stop-color="#c495ec" stop-opacity="1"></stop></linearGradient></defs><defs><linearGradient id="grad1_4" x1="33.3%" y1="100%" x2="100%" y2="0%"><stop offset="20%" stop-color="#dbbbf8" stop-opacity="1"></stop><stop offset="80%" stop-color="#c495ec" stop-opacity="1"></stop></linearGradient></defs><defs><linearGradient id="grad2_0" x1="0%" y1="100%" x2="66.7%" y2="0%"><stop offset="20%" stop-color="#7b05c4" stop-opacity="1"></stop><stop offset="80%" stop-color="#7b05c4" stop-opacity="1"></stop></linearGradient></defs><defs><linearGradient id="grad2_1" x1="0%" y1="100%" x2="66.7%" y2="0%"><stop offset="20%" stop-color="#9445d2" stop-opacity="1"></stop><stop offset="80%" stop-color="#7b05c4" stop-opacity="1"></stop></linearGradient></defs><defs><linearGradient id="grad2_2" x1="0%" y1="100%" x2="66.7%" y2="0%"><stop offset="20%" stop-color="#9445d2" stop-opacity="1"></stop><stop offset="80%" stop-color="#ac6ee0" stop-opacity="1"></stop></linearGradient></defs><defs><linearGradient id="grad2_3" x1="0%" y1="100%" x2="66.7%" y2="0%"><stop offset="20%" stop-color="#c495ec" stop-opacity="1"></stop><stop offset="80%" stop-color="#ac6ee0" stop-opacity="1"></stop></linearGradient></defs><defs><linearGradient id="grad2_4" x1="0%" y1="100%" x2="66.7%" y2="0%"><stop offset="20%" stop-color="#c495ec" stop-opacity="1"></stop><stop offset="80%" stop-color="#dbbbf8" stop-opacity="1"></stop></linearGradient></defs><g transform="translate(900, 600)"><path d="M-486.7 0C-454.8 -73.5 -422.8 -147.1 -386.2 -223C-349.7 -298.9 -308.5 -377.2 -243.4 -421.5C-178.2 -465.9 -89.1 -476.3 0 -486.7L0 0Z" fill="#cfa8f2"></path><path d="M-389.4 0C-363.8 -58.8 -338.3 -117.7 -309 -178.4C-279.7 -239.1 -246.8 -301.7 -194.7 -337.2C-142.6 -372.7 -71.3 -381.1 0 -389.4L0 0Z" fill="#b882e6"></path><path d="M-292 0C-272.9 -44.1 -253.7 -88.3 -231.7 -133.8C-209.8 -179.3 -185.1 -226.3 -146 -252.9C-106.9 -279.5 -53.5 -285.8 0 -292L0 0Z" fill="#a05bd9"></path><path d="M-194.7 0C-181.9 -29.4 -169.1 -58.8 -154.5 -89.2C-139.9 -119.6 -123.4 -150.9 -97.3 -168.6C-71.3 -186.4 -35.6 -190.5 0 -194.7L0 0Z" fill="#882dcb"></path><path d="M-97.3 0C-91 -14.7 -84.6 -29.4 -77.2 -44.6C-69.9 -59.8 -61.7 -75.4 -48.7 -84.3C-35.6 -93.2 -17.8 -95.3 0 -97.3L0 0Z" fill="#7b05c4"></path></g><g transform="translate(0, 0)"><path d="M486.7 0C467.3 80.7 447.8 161.5 409.6 236.5C371.5 311.5 314.8 380.8 243.4 421.5C172 462.3 86 474.5 0 486.7L0 0Z" fill="#cfa8f2"></path><path d="M389.4 0C373.8 64.6 358.2 129.2 327.7 189.2C297.2 249.2 251.8 304.6 194.7 337.2C137.6 369.8 68.8 379.6 0 389.4L0 0Z" fill="#b882e6"></path><path d="M292 0C280.4 48.4 268.7 96.9 245.8 141.9C222.9 186.9 188.9 228.5 146 252.9C103.2 277.4 51.6 284.7 0 292L0 0Z" fill="#a05bd9"></path><path d="M194.7 0C186.9 32.3 179.1 64.6 163.9 94.6C148.6 124.6 125.9 152.3 97.3 168.6C68.8 184.9 34.4 189.8 0 194.7L0 0Z" fill="#882dcb"></path><path d="M97.3 0C93.5 16.1 89.6 32.3 81.9 47.3C74.3 62.3 63 76.2 48.7 84.3C34.4 92.5 17.2 94.9 0 97.3L0 0Z" fill="#7b05c4"></path></g></svg>