<svg id="visual" viewBox="0 0 900 450" width="900" height="450" xmlns="http://www.w3.org/2000/svg" xmlns:xlink="http://www.w3.org/1999/xlink" version="1.1"><rect x="0" y="0" width="900" height="450" fill="#a7b1e7"></rect><path d="M0 183L21.5 185.2C43 187.3 86 191.7 128.8 202.5C171.7 213.3 214.3 230.7 257.2 233.2C300 235.7 343 223.3 385.8 223.2C428.7 223 471.3 235 514.2 227.7C557 220.3 600 193.7 642.8 188.7C685.7 183.7 728.3 200.3 771.2 203.5C814 206.7 857 196.3 878.5 191.2L900 186L900 451L878.5 451C857 451 814 451 771.2 451C728.3 451 685.7 451 642.8 451C600 451 557 451 514.2 451C471.3 451 428.7 451 385.8 451C343 451 300 451 257.2 451C214.3 451 171.7 451 128.8 451C86 451 43 451 21.5 451L0 451Z" fill="#a459e8"></path><path d="M0 200L21.5 199.2C43 198.3 86 196.7 128.8 198C171.7 199.3 214.3 203.7 257.2 213.3C300 223 343 238 385.8 242C428.7 246 471.3 239 514.2 230C557 221 600 210 642.8 215.7C685.7 221.3 728.3 243.7 771.2 255.7C814 267.7 857 269.3 878.5 270.2L900 271L900 451L878.5 451C857 451 814 451 771.2 451C728.3 451 685.7 451 642.8 451C600 451 557 451 514.2 451C471.3 451 428.7 451 385.8 451C343 451 300 451 257.2 451C214.3 451 171.7 451 128.8 451C86 451 43 451 21.5 451L0 451Z" fill="#9b51e1"></path><path d="M0 228L21.5 239.7C43 251.3 86 274.7 128.8 286.7C171.7 298.7 214.3 299.3 257.2 288.5C300 277.7 343 255.3 385.8 252.3C428.7 249.3 471.3 265.7 514.2 264.5C557 263.3 600 244.7 642.8 240.5C685.7 236.3 728.3 246.7 771.2 251.8C814 257 857 257 878.5 257L900 257L900 451L878.5 451C857 451 814 451 771.2 451C728.3 451 685.7 451 642.8 451C600 451 557 451 514.2 451C471.3 451 428.7 451 385.8 451C343 451 300 451 257.2 451C214.3 451 171.7 451 128.8 451C86 451 43 451 21.5 451L0 451Z" fill="#9149d9"></path><path d="M0 261L21.5 265.8C43 270.7 86 280.3 128.8 289.7C171.7 299 214.3 308 257.2 307.5C300 307 343 297 385.8 294C428.7 291 471.3 295 514.2 299.2C557 303.3 600 307.7 642.8 297.7C685.7 287.7 728.3 263.3 771.2 254.2C814 245 857 251 878.5 254L900 257L900 451L878.5 451C857 451 814 451 771.2 451C728.3 451 685.7 451 642.8 451C600 451 557 451 514.2 451C471.3 451 428.7 451 385.8 451C343 451 300 451 257.2 451C214.3 451 171.7 451 128.8 451C86 451 43 451 21.5 451L0 451Z" fill="#8742d2"></path><path d="M0 335L21.5 333.3C43 331.7 86 328.3 128.8 325.2C171.7 322 214.3 319 257.2 312.5C300 306 343 296 385.8 292.3C428.7 288.7 471.3 291.3 514.2 292.3C557 293.3 600 292.7 642.8 292.5C685.7 292.3 728.3 292.7 771.2 295.5C814 298.3 857 303.7 878.5 306.3L900 309L900 451L878.5 451C857 451 814 451 771.2 451C728.3 451 685.7 451 642.8 451C600 451 557 451 514.2 451C471.3 451 428.7 451 385.8 451C343 451 300 451 257.2 451C214.3 451 171.7 451 128.8 451C86 451 43 451 21.5 451L0 451Z" fill="#7e3acb"></path><path d="M0 348L21.5 340.8C43 333.7 86 319.3 128.8 315.8C171.7 312.3 214.3 319.7 257.2 322.7C300 325.7 343 324.3 385.8 328C428.7 331.7 471.3 340.3 514.2 342C557 343.7 600 338.3 642.8 339.8C685.7 341.3 728.3 349.7 771.2 348.7C814 347.7 857 337.3 878.5 332.2L900 327L900 451L878.5 451C857 451 814 451 771.2 451C728.3 451 685.7 451 642.8 451C600 451 557 451 514.2 451C471.3 451 428.7 451 385.8 451C343 451 300 451 257.2 451C214.3 451 171.7 451 128.8 451C86 451 43 451 21.5 451L0 451Z" fill="#7432c3"></path><path d="M0 330L21.5 331.8C43 333.7 86 337.3 128.8 338.7C171.7 340 214.3 339 257.2 339.3C300 339.7 343 341.3 385.8 347.5C428.7 353.7 471.3 364.3 514.2 363.2C557 362 600 349 642.8 346.8C685.7 344.7 728.3 353.3 771.2 350.7C814 348 857 334 878.5 327L900 320L900 451L878.5 451C857 451 814 451 771.2 451C728.3 451 685.7 451 642.8 451C600 451 557 451 514.2 451C471.3 451 428.7 451 385.8 451C343 451 300 451 257.2 451C214.3 451 171.7 451 128.8 451C86 451 43 451 21.5 451L0 451Z" fill="#6b2abc"></path><path d="M0 379L21.5 374.7C43 370.3 86 361.7 128.8 357.3C171.7 353 214.3 353 257.2 360.8C300 368.7 343 384.3 385.8 391.8C428.7 399.3 471.3 398.7 514.2 394.2C557 389.7 600 381.3 642.8 380.3C685.7 379.3 728.3 385.7 771.2 385.2C814 384.7 857 377.3 878.5 373.7L900 370L900 451L878.5 451C857 451 814 451 771.2 451C728.3 451 685.7 451 642.8 451C600 451 557 451 514.2 451C471.3 451 428.7 451 385.8 451C343 451 300 451 257.2 451C214.3 451 171.7 451 128.8 451C86 451 43 451 21.5 451L0 451Z" fill="#6123b5"></path><path d="M0 396L21.5 392.3C43 388.7 86 381.3 128.8 384C171.7 386.7 214.3 399.3 257.2 400.2C300 401 343 390 385.8 383.7C428.7 377.3 471.3 375.7 514.2 380C557 384.3 600 394.7 642.8 397.3C685.7 400 728.3 395 771.2 397.3C814 399.7 857 409.3 878.5 414.2L900 419L900 451L878.5 451C857 451 814 451 771.2 451C728.3 451 685.7 451 642.8 451C600 451 557 451 514.2 451C471.3 451 428.7 451 385.8 451C343 451 300 451 257.2 451C214.3 451 171.7 451 128.8 451C86 451 43 451 21.5 451L0 451Z" fill="#571aad"></path><path d="M0 427L21.5 427C43 427 86 427 128.8 427.3C171.7 427.7 214.3 428.3 257.2 427.8C300 427.3 343 425.7 385.8 422.5C428.7 419.3 471.3 414.7 514.2 414.5C557 414.3 600 418.7 642.8 422.2C685.7 425.7 728.3 428.3 771.2 426.3C814 424.3 857 417.7 878.5 414.3L900 411L900 451L878.5 451C857 451 814 451 771.2 451C728.3 451 685.7 451 642.8 451C600 451 557 451 514.2 451C471.3 451 428.7 451 385.8 451C343 451 300 451 257.2 451C214.3 451 171.7 451 128.8 451C86 451 43 451 21.5 451L0 451Z" fill="#4d11a6"></path></svg>